HIERARCHY
ROOT SpineBase
{
  OFFSET 0.000000 0.000000 0.000000
  CHANNELS 6 Xposition Yposition Zposition Zrotation Xrotation Yrotation
  JOINT SpineMid
  {
    OFFSET 0.000000 33.250930 -0.000000
    CHANNELS 3 Zrotation Xrotation Yrotation
    JOINT SpineShoulder
    {
      OFFSET 0.070954 24.723276 -0.920457
      CHANNELS 3 Zrotation Xrotation Yrotation
      JOINT Neck
      {
        OFFSET 0.041543 8.185060 -0.678325
        CHANNELS 3 Zrotation Xrotation Yrotation
        JOINT Head
        {
          OFFSET 0.018581 10.892331 3.632348
          CHANNELS 3 Zrotation Xrotation Yrotation
          End Site
          {
            OFFSET 0 0 0
          }
        }
      }
      JOINT ShoulderLeft
      {
        OFFSET -15.374040 -5.746515 -3.119351
        CHANNELS 3 Zrotation Xrotation Yrotation
        JOINT ElbowLeft
        {
          OFFSET -5.517660 -25.892740 3.300245
          CHANNELS 3 Zrotation Xrotation Yrotation
          JOINT WristLeft
          {
            OFFSET 12.535339 -15.063813 -12.854603
            CHANNELS 3 Zrotation Xrotation Yrotation
            JOINT HandLeft
            {
              OFFSET 2.160320 -5.900436 -0.758325
              CHANNELS 3 Zrotation Xrotation Yrotation
              JOINT HandTipLeft
              {
                OFFSET 4.998559 -7.162106 0.867886
                CHANNELS 3 Zrotation Xrotation Yrotation
                End Site
                {
                  OFFSET 0 0 0
                }
              }
              JOINT ThumbLeft
              {
                OFFSET 6.474130 6.395939 -2.500221
                CHANNELS 3 Zrotation Xrotation Yrotation
                End Site
                {
                  OFFSET 0 0 0
                }
              }
            }
          }
        }
      }
      JOINT ShoulderRight
      {
        OFFSET 15.513393 -5.911554 -3.759727
        CHANNELS 3 Zrotation Xrotation Yrotation
        JOINT ElbowRight
        {
          OFFSET 4.929330 -27.405064 3.214234
          CHANNELS 3 Zrotation Xrotation Yrotation
          JOINT WristRight
          {
            OFFSET 0.142649 -21.537696 4.100154
            CHANNELS 3 Zrotation Xrotation Yrotation
            JOINT HandRight
            {
              OFFSET -0.609427 -6.658937 3.122500
              CHANNELS 3 Zrotation Xrotation Yrotation
              JOINT HandTipRight
              {
                OFFSET -0.510758 -6.598940 0.356351
                CHANNELS 3 Zrotation Xrotation Yrotation
                End Site
                {
                  OFFSET 0 0 0
                }
              }
              JOINT ThumbRight
              {
                OFFSET 1.080713 -0.567220 -1.385074
                CHANNELS 3 Zrotation Xrotation Yrotation
                End Site
                {
                  OFFSET 0 0 0
                }
              }
            }
          }
        }
      }
    }
  }
  JOINT HipLeft
  {
    OFFSET -5.470683 1.169224 -3.663261
    CHANNELS 3 Zrotation Xrotation Yrotation
    JOINT KneeLeft
    {
      OFFSET -3.234742 -39.346851 -3.210219
      CHANNELS 3 Zrotation Xrotation Yrotation
      JOINT AnkleLeft
      {
        OFFSET -3.133984 -33.498593 -1.670088
        CHANNELS 3 Zrotation Xrotation Yrotation
        JOINT FootLeft
        {
          OFFSET 0.272509 -1.713604 -11.483710
          CHANNELS 3 Zrotation Xrotation Yrotation
          End Site
          {
            OFFSET 0 0 0
          }
        }
      }
    }
  }
  JOINT HipRight
  {
    OFFSET 6.080355 1.332002 -4.036725
    CHANNELS 3 Zrotation Xrotation Yrotation
    JOINT KneeRight
    {
      OFFSET 1.330526 -38.809005 -4.184666
      CHANNELS 3 Zrotation Xrotation Yrotation
      JOINT AnkleRight
      {
        OFFSET 0.675308 -34.296546 -2.244100
        CHANNELS 3 Zrotation Xrotation Yrotation
        JOINT FootRight
        {
          OFFSET 0.043160 -1.694282 -11.492644
          CHANNELS 3 Zrotation Xrotation Yrotation
          End Site
          {
            OFFSET 0 0 0
          }
        }
      }
    }
  }
}
MOTION
Frames: 12
Frame Time: 0.033333
-23.853248 75.982432 302.156891 -0.000000 -0.000000 1.851821 0.000000 0.000000 -1.851821 -0.000000 0.000000 0.000000 -0.000000 0.000000 0.000000 0.000000 0.000000 0.000000 -0.000000 0.000000 0.000000 -0.000000 0.000000 0.000000 -0.000000 0.000000 0.000000 -0.000000 0.000000 0.000000 0.000000 0.000000 0.000000 0.000000 0.000000 0.000000 -0.000000 0.000000 0.000000 -0.000000 0.000000 0.000000 -0.000000 0.000000 0.000000 -0.000000 0.000000 0.000000 0.000000 0.000000 0.000000 0.000000 0.000000 0.000000 0.000000 0.000000 -1.851821 -0.000000 0.000000 0.000000 -0.000000 0.000000 0.000000 0.000000 0.000000 0.000000 0.000000 0.000000 -1.851821 -0.000000 0.000000 0.000000 -0.000000 0.000000 0.000000 0.000000 0.000000 0.000000
-23.833258 75.978774 302.141109 -0.013314 0.019596 1.824055 0.012683 -0.020010 -1.824050 -0.000000 0.000000 0.000000 -0.000000 0.000000 0.000000 0.000000 0.000000 0.000000 -0.000000 0.000000 0.000000 -0.000000 0.000000 0.000000 -0.000000 0.000000 0.000000 -0.000000 0.000000 0.000000 0.000000 0.000000 0.000000 0.000000 0.000000 0.000000 -0.000000 0.000000 0.000000 -0.000000 0.000000 0.000000 -1.001751 -0.399752 -0.435597 -0.015331 0.892836 0.347368 0.000000 0.000000 0.000000 0.000000 0.000000 0.000000 0.012683 -0.020010 -1.824050 -0.000000 0.000000 0.000000 -0.000000 0.000000 0.000000 0.000000 0.000000 0.000000 0.012683 -0.020010 -1.824050 -0.000000 0.000000 0.000000 -0.000000 0.000000 0.000000 0.000000 0.000000 0.000000
-23.816416 75.973991 302.131013 -0.027924 0.043785 1.790774 0.026542 -0.044636 -1.790753 -0.000000 0.000000 0.000000 -0.000000 0.000000 0.000000 0.000000 0.000000 0.000000 -0.000000 0.000000 0.000000 -0.000000 0.000000 0.000000 -0.000000 0.000000 0.000000 -0.000000 0.000000 0.000000 0.000000 0.000000 0.000000 0.000000 0.000000 0.000000 -0.000000 0.000000 0.000000 -0.000000 0.000000 0.000000 -1.828535 -0.646654 -0.805324 -0.005848 1.537676 0.652793 0.000000 0.000000 0.000000 0.000000 0.000000 0.000000 0.026542 -0.044636 -1.790753 -0.000000 0.000000 0.000000 -0.000000 0.000000 0.000000 0.000000 0.000000 0.000000 0.026542 -0.044636 -1.790753 -0.000000 0.000000 0.000000 -0.000000 0.000000 0.000000 0.000000 0.000000 0.000000
-23.802722 75.968083 302.126603 -0.043828 0.072564 1.751967 0.041589 -0.073870 -1.751912 -0.000000 0.000000 0.000000 0.366327 -0.753128 -0.118731 0.000000 0.000000 0.000000 -0.000000 0.000000 0.000000 -0.000000 0.000000 0.000000 -0.000000 0.000000 0.000000 -0.907506 0.364150 0.147934 0.000000 0.000000 0.000000 0.000000 0.000000 0.000000 -0.000000 0.000000 0.000000 0.197579 0.875074 0.041961 -2.672655 -1.614998 -1.185048 0.043757 1.929233 0.905918 0.000000 0.000000 0.000000 0.000000 0.000000 0.000000 0.041589 -0.073870 -1.751912 -0.000000 0.000000 0.000000 -0.000000 0.000000 0.000000 0.000000 0.000000 0.000000 0.041589 -0.073870 -1.751912 -0.000000 0.000000 0.000000 -0.000000 0.000000 0.000000 0.000000 0.000000 0.000000
-23.792176 75.961050 302.127878 -0.061024 0.105930 1.707610 0.057840 -0.107701 -1.707499 -0.000000 0.000000 0.000000 0.442214 -0.943259 -0.142612 0.000000 0.000000 0.000000 -0.000000 0.000000 0.000000 -0.000000 0.000000 0.000000 -0.000000 0.000000 0.000000 -0.973678 0.446309 0.198561 0.000000 0.000000 0.000000 0.000000 0.000000 0.000000 -0.000000 0.000000 0.000000 0.228756 0.977008 0.048147 -3.162927 -1.665034 -1.424452 0.150959 2.064203 1.100316 0.000000 0.000000 0.000000 0.000000 0.000000 0.000000 0.057840 -0.107701 -1.707499 -0.000000 0.000000 0.000000 -0.000000 0.000000 0.000000 0.000000 0.000000 0.000000 0.057840 -0.107701 -1.707499 -0.000000 0.000000 0.000000 -0.000000 0.000000 0.000000 0.000000 0.000000 0.000000
-23.784778 75.952893 302.134839 -0.079508 0.143877 1.657668 0.075313 -0.146117 -1.657472 -0.000000 0.000000 0.000000 0.494693 -1.102190 -0.158842 0.000000 0.000000 0.000000 -0.000000 0.000000 0.000000 -0.000000 0.000000 0.000000 -0.000000 0.000000 0.000000 -0.919815 0.508446 0.249002 0.000000 0.000000 0.000000 0.000000 0.000000 0.000000 -0.000000 0.000000 0.000000 0.242682 0.984206 0.050716 -3.449189 -1.479280 -1.574127 0.335047 1.940585 1.234157 0.000000 0.000000 0.000000 0.000000 0.000000 0.000000 0.075313 -0.146117 -1.657472 -0.000000 0.000000 0.000000 -0.000000 0.000000 0.000000 0.000000 0.000000 0.000000 0.075313 -0.146117 -1.657472 -0.000000 0.000000 0.000000 -0.000000 0.000000 0.000000 0.000000 0.000000 0.000000
-23.779375 75.941678 302.153150 -0.110172 0.208075 1.594858 0.104338 -0.211060 -1.594466 -0.000000 0.000000 0.000000 0.524520 -1.356035 -0.167057 0.000000 0.000000 0.000000 -0.000000 0.000000 0.000000 -0.000000 0.000000 0.000000 0.615362 -0.806387 -0.369609 -1.304338 1.324095 0.677233 0.000000 0.000000 0.000000 0.000000 0.000000 0.000000 -0.000000 0.000000 0.000000 0.257002 0.854616 0.052744 -3.473469 -1.626423 -1.554178 1.236355 2.157524 1.247363 0.000000 0.000000 0.000000 0.000000 0.000000 0.000000 0.104338 -0.211060 -1.594466 -0.000000 0.000000 0.000000 -0.000000 0.000000 0.000000 0.000000 0.000000 0.000000 0.104338 -0.211060 -1.594466 -0.093780 -0.831480 -0.010922 0.093632 0.831497 0.009562 0.000000 0.000000 0.000000
-23.778239 75.926306 302.176052 -0.130971 0.259686 1.523596 0.124021 -0.263076 -1.523014 -0.000000 0.000000 0.000000 0.523046 -1.560234 -0.165394 0.000000 0.000000 0.000000 -0.000000 0.000000 0.000000 -0.000000 0.000000 0.000000 0.587797 -1.296596 -0.543401 -0.600219 1.290894 0.556814 0.000000 0.000000 0.000000 0.000000 0.000000 0.000000 -0.000000 0.000000 0.000000 -0.000000 0.000000 0.000000 -3.261052 0.295558 -1.545966 2.176900 0.162274 1.470683 0.000000 0.000000 0.000000 0.000000 0.000000 0.000000 0.124021 -0.263076 -1.523014 -0.000000 0.000000 0.000000 -0.000000 0.000000 0.000000 0.000000 0.000000 0.000000 0.124021 -0.263076 -1.523014 -0.083885 -0.928662 -0.013484 0.083677 0.928681 0.012126 0.000000 0.000000 0.000000
-23.780595 75.916109 302.198100 -0.154317 0.300877 1.457251 0.146618 -0.304703 -1.456456 -0.449685 0.700141 -0.038092 0.948649 -2.269434 -0.107297 0.000000 0.000000 0.000000 0.450184 -0.699821 0.043589 -0.000000 0.000000 0.000000 0.458367 -1.486513 -0.597365 -0.473997 1.481604 0.609440 0.000000 0.000000 0.000000 0.000000 0.000000 0.000000 0.450184 -0.699821 0.043589 -0.000000 0.000000 0.000000 -3.073804 1.364654 -1.534704 1.716985 -0.480060 1.445868 0.000000 0.000000 0.000000 0.000000 0.000000 0.000000 0.146618 -0.304703 -1.456456 -0.000000 0.000000 0.000000 -0.000000 0.000000 0.000000 0.000000 0.000000 0.000000 0.146618 -0.304703 -1.456456 -0.076128 -1.012015 -0.015628 0.075863 1.012035 0.014285 0.000000 0.000000 0.000000
-23.787445 75.910190 302.213671 -0.167833 0.329720 1.397768 0.159743 -0.333715 -1.396820 -0.000000 0.000000 0.000000 0.543496 -1.651219 -0.171421 0.000000 0.000000 0.000000 -0.000000 0.000000 0.000000 -0.000000 0.000000 0.000000 0.412812 -1.222093 -0.496135 -0.423474 1.218440 0.505041 0.000000 0.000000 0.000000 0.000000 0.000000 0.000000 -0.000000 0.000000 0.000000 -0.000000 0.000000 0.000000 -2.987297 2.401776 -1.569912 3.054455 -2.315736 1.694297 0.000000 0.000000 0.000000 0.000000 0.000000 0.000000 0.159743 -0.333715 -1.396820 -0.000000 0.000000 0.000000 -0.000000 0.000000 0.000000 0.000000 0.000000 0.000000 0.159743 -0.333715 -1.396820 -0.078572 -1.096103 -0.017205 0.078257 1.096125 0.015704 0.000000 0.000000 0.000000
-23.797779 75.907436 302.227960 -0.173508 0.330748 1.310702 0.165900 -0.334628 -1.309716 -0.000000 0.000000 0.000000 0.562436 -1.407085 -0.178989 0.000000 0.000000 0.000000 -0.000000 0.000000 0.000000 -0.000000 0.000000 0.000000 0.360407 -0.815610 -0.342296 -0.365310 0.813426 0.347454 0.000000 0.000000 0.000000 0.000000 0.000000 0.000000 -0.000000 0.000000 0.000000 -0.000000 0.000000 0.000000 -2.654775 3.522626 -1.504356 3.097079 -4.222508 1.770062 0.000000 0.000000 0.000000 0.000000 0.000000 0.000000 0.165900 -0.334628 -1.309716 -0.000000 0.000000 0.000000 -0.000000 0.000000 0.000000 0.000000 0.000000 0.000000 0.165900 -0.334628 -1.309716 -0.067194 -1.215496 -0.020265 0.066779 1.215519 0.018844 0.000000 0.000000 0.000000
-23.809986 75.915052 302.218692 -0.198016 0.358889 1.348783 0.189517 -0.363448 -1.347562 -0.000000 0.000000 0.000000 0.643372 -1.261458 -0.206076 0.000000 0.000000 0.000000 -0.000000 0.000000 0.000000 -0.000000 0.000000 0.000000 -0.000000 0.000000 0.000000 1.191746 0.226640 0.298144 0.000000 0.000000 0.000000 0.000000 0.000000 0.000000 -0.000000 0.000000 0.000000 -0.000000 0.000000 0.000000 -2.289751 5.012645 -1.459879 2.425604 -4.948462 1.664945 0.000000 0.000000 0.000000 0.000000 0.000000 0.000000 0.189517 -0.363448 -1.347562 -0.000000 0.000000 0.000000 -0.000000 0.000000 0.000000 0.000000 0.000000 0.000000 0.189517 -0.363448 -1.347562 -0.060306 -1.278679 -0.021922 0.059832 1.278701 0.020581 0.000000 0.000000 0.000000
